<svg width="160" height="32" viewBox="0 0 160 32" fill="none" xmlns="http://www.w3.org/2000/svg">
<path d="M18.16 31.36C15.16 31.36 12.4 29.4 9.92 25.56V31H2.64V3.04H11.84C16 3.04 23 3.76 23 12.24C23 20.32 16.92 21.56 14.68 21.8C16.84 26.44 20.12 26.48 20.36 22.12H26.36C26.36 23.6 26.04 25.04 25.48 26.4C24.16 29.56 21.48 31.36 18.16 31.36ZM8.8 12.44C8.8 14.72 9.96 15.88 12.32 15.88H12.56C15 15.88 16.12 14.76 16.12 12.52C16.12 10.24 14.96 9.08 12.6 9.08H12.36C9.92 9.08 8.8 10.2 8.8 12.44ZM29.6712 31V3.04H44.9913V9.6H38.4713C37.2713 9.6 36.7113 10.28 36.7113 11.6C36.7113 12.96 37.3112 13.64 38.4313 13.64H44.5913V20.2H38.4713C37.2313 20.2 36.6313 20.92 36.6313 22.28C36.6313 23.72 37.2313 24.44 38.4313 24.44H44.9913V31H29.6712Z" fill="#48A8D4"/>
<path d="M48.0238 31L58.2238 3.04H65.9838L75.9838 31H68.2238L67.3038 28.44C67.0238 27.72 66.7438 27.12 66.2238 26.64C65.1838 25.68 63.7438 25.32 62.2238 25.28H61.9038C60.3838 25.32 58.9038 25.64 57.8638 26.52C57.3438 27 57.0238 27.6 56.7438 28.32L55.7438 31H48.0238ZM59.5838 20.16H64.5038L62.0638 12.56L59.5838 20.16ZM86.9197 31.8C82.8797 31.8 78.9597 29.6 78.9597 29.6V22.84C81.2797 22.84 84.0797 25.28 86.5597 25.28C88.3597 25.28 89.4797 24.4 89.4797 22.92C89.4797 21.76 88.2797 20.76 85.8397 19.92C82.8397 18.84 78.5997 16.96 78.5997 11.48C78.5997 6.2 82.5997 2.52 88.2797 2.52C92.4397 2.52 96.2397 4.52 96.2397 4.52V11.28C93.9997 11.28 91.1597 8.92 88.7197 8.92C87.2797 8.92 86.2797 9.72 86.2797 10.92C86.2797 12.56 88.5197 13.16 90.8397 14.04C95.1197 15.6 97.1997 18.32 97.1597 22.28C97.1597 25.8 94.7997 31.8 86.9197 31.8ZM118.384 22.6C115.944 23 112.664 23.32 109.104 22.6V30.96H101.624V3H109.104V13.08L116.984 3H124.984L114.624 16.52C120.264 16.28 124.904 13.8 124.904 13.8V31H118.384V22.6Z" fill="#0E212A"/>
</svg>
