<svg width="160" height="64" viewBox="0 0 160 64" fill="none" xmlns="http://www.w3.org/2000/svg">
<path d="M18.16 31.36C15.16 31.36 12.4 29.4 9.92 25.56V31H2.64V3.04H11.84C16 3.04 23 3.76 23 12.24C23 20.32 16.92 21.56 14.68 21.8C16.84 26.44 20.12 26.48 20.36 22.12H26.36C26.36 23.6 26.04 25.04 25.48 26.4C24.16 29.56 21.48 31.36 18.16 31.36ZM8.8 12.44C8.8 14.72 9.96 15.88 12.32 15.88H12.56C15 15.88 16.12 14.76 16.12 12.52C16.12 10.24 14.96 9.08 12.6 9.08H12.36C9.92 9.08 8.8 10.2 8.8 12.44ZM29.6712 31V3.04H44.9913V9.6H38.4713C37.2713 9.6 36.7113 10.28 36.7113 11.6C36.7113 12.96 37.3112 13.64 38.4313 13.64H44.5913V20.2H38.4713C37.2313 20.2 36.6313 20.92 36.6313 22.28C36.6313 23.72 37.2313 24.44 38.4313 24.44H44.9913V31H29.6712Z" fill="#48A8D4"/>
<path d="M48.0238 31L58.2238 3.04H65.9838L75.9838 31H68.2238L67.3038 28.44C67.0238 27.72 66.7438 27.12 66.2238 26.64C65.1838 25.68 63.7438 25.32 62.2238 25.28H61.9038C60.3838 25.32 58.9038 25.64 57.8638 26.52C57.3438 27 57.0238 27.6 56.7438 28.32L55.7438 31H48.0238ZM59.5838 20.16H64.5038L62.0638 12.56L59.5838 20.16ZM86.9197 31.8C82.8797 31.8 78.9597 29.6 78.9597 29.6V22.84C81.2797 22.84 84.0797 25.28 86.5597 25.28C88.3597 25.28 89.4797 24.4 89.4797 22.92C89.4797 21.76 88.2797 20.76 85.8397 19.92C82.8397 18.84 78.5997 16.96 78.5997 11.48C78.5997 6.2 82.5997 2.52 88.2797 2.52C92.4397 2.52 96.2397 4.52 96.2397 4.52V11.28C93.9997 11.28 91.1597 8.92 88.7197 8.92C87.2797 8.92 86.2797 9.72 86.2797 10.92C86.2797 12.56 88.5197 13.16 90.8397 14.04C95.1197 15.6 97.1997 18.32 97.1597 22.28C97.1597 25.8 94.7997 31.8 86.9197 31.8ZM118.384 22.6C115.944 23 112.664 23.32 109.104 22.6V30.96H101.624V3H109.104V13.08L116.984 3H124.984L114.624 16.52C120.264 16.28 124.904 13.8 124.904 13.8V31H118.384V22.6Z" fill="#0E212A"/>
<path d="M0.924 51V41.214H3.542V51H0.924ZM5.3947 51V41.214H7.9707V48.69H10.7567V51H5.3947ZM18.5684 51.28C17.1544 51.28 15.7824 50.51 15.7824 50.51V48.144C16.5944 48.144 17.5744 48.998 18.4424 48.998C19.0724 48.998 19.4644 48.69 19.4644 48.172C19.4644 47.766 19.0444 47.416 18.1904 47.122C17.1404 46.744 15.6564 46.086 15.6564 44.168C15.6564 42.32 17.0564 41.032 19.0444 41.032C20.5004 41.032 21.8304 41.732 21.8304 41.732V44.098C21.0464 44.098 20.0524 43.272 19.1984 43.272C18.6944 43.272 18.3444 43.552 18.3444 43.972C18.3444 44.546 19.1284 44.756 19.9404 45.064C21.4384 45.61 22.1664 46.562 22.1524 47.948C22.1524 49.18 21.3264 51.28 18.5684 51.28ZM22.8376 51L26.4076 41.214H29.1236L32.6236 51H29.9076L29.5856 50.104C29.4876 49.852 29.3896 49.642 29.2076 49.474C28.8436 49.138 28.3396 49.012 27.8076 48.998H27.6956C27.1636 49.012 26.6456 49.124 26.2816 49.432C26.0996 49.6 25.9876 49.81 25.8896 50.062L25.5396 51H22.8376ZM26.8836 47.206H28.6056L27.7516 44.546L26.8836 47.206ZM33.7912 51V41.214H36.8152C38.4812 41.214 40.9172 41.466 40.9172 44.434C40.9172 47.444 38.4672 47.822 37.4452 47.822H36.3392V51H33.7912ZM35.9472 44.504C35.9472 45.302 36.3532 45.708 37.1792 45.708H37.2632C38.1172 45.708 38.5092 45.316 38.5092 44.532C38.5092 43.734 38.0752 43.328 37.2772 43.328H37.1932C36.3392 43.328 35.9472 43.72 35.9472 44.504ZM42.3088 51V41.214H44.9268V51H42.3088ZM46.7795 51V41.214H52.1415V43.51H49.8595C49.4395 43.51 49.2435 43.748 49.2435 44.21C49.2435 44.686 49.4535 44.924 49.8455 44.924H52.0015V47.22H49.8595C49.4255 47.22 49.2155 47.472 49.2155 47.948C49.2155 48.452 49.4255 48.704 49.8455 48.704H52.1415V51H46.7795ZM59.6008 51C59.6008 51 57.6548 48.452 56.5068 46.114V51H53.8888V41.214L56.9548 41.2C57.7948 44.084 59.7128 47.122 59.7128 47.122V41.214H62.3308V51H59.6008ZM65.4718 51V43.51H63.5678V41.214H70.0078V43.51H68.0898V51H65.4718ZM71.2521 51V41.214H73.8701V51H71.2521ZM81.4348 51C81.4348 51 79.4888 48.452 78.3408 46.114V51H75.7228V41.214L78.7888 41.2C79.6288 44.084 81.5468 47.122 81.5468 47.122V41.214H84.1648V51H81.4348ZM90.7638 51.294C84.0297 51.294 83.8337 40.878 90.7498 40.878C97.6658 40.878 97.4978 51.294 90.7638 51.294ZM88.1458 46.058C88.1458 47.738 88.9438 48.606 90.7358 48.606H90.7918C92.5418 48.606 93.3818 47.738 93.3818 46.058C93.3818 44.406 92.5558 43.566 90.7638 43.566C89.0138 43.566 88.1458 44.406 88.1458 46.058Z" fill="black"/>
</svg>
