<svg width="34" height="34" fill="none" xmlns="http://www.w3.org/2000/svg">
  <path fill-rule="evenodd" clip-rule="evenodd"
    d="M6.375 14.7963C6.375 10.1453 10.1453 6.375 14.7963 6.375C19.4472 6.375 23.2176 10.1453 23.2176 14.7963C23.2176 16.8668 22.4704 18.7627 21.2309 20.2292L27.4175 26.4158C27.6942 26.6924 27.6942 27.1409 27.4175 27.4175C27.1409 27.6942 26.6924 27.6942 26.4158 27.4175L20.2292 21.2309C18.7627 22.4704 16.8668 23.2176 14.7963 23.2176C10.1453 23.2176 6.375 19.4472 6.375 14.7963ZM14.7963 7.79167C10.9277 7.79167 7.79167 10.9277 7.79167 14.7963C7.79167 18.6648 10.9277 21.8009 14.7963 21.8009C18.6648 21.8009 21.8009 18.6648 21.8009 14.7963C21.8009 10.9277 18.6648 7.79167 14.7963 7.79167Z"
    fill="currentColor
" />
</svg>