<svg width="125" height="50" viewBox="0 0 125 50" fill="none" xmlns="http://www.w3.org/2000/svg">
<path d="M18.16 29.36C15.16 29.36 12.4 27.4 9.92 23.56V29H2.64V1.04H11.84C16 1.04 23 1.76 23 10.24C23 18.32 16.92 19.56 14.68 19.8C16.84 24.44 20.12 24.48 20.36 20.12H26.36C26.36 21.6 26.04 23.04 25.48 24.4C24.16 27.56 21.48 29.36 18.16 29.36ZM8.8 10.44C8.8 12.72 9.96 13.88 12.32 13.88H12.56C15 13.88 16.12 12.76 16.12 10.52C16.12 8.24 14.96 7.08 12.6 7.08H12.36C9.92 7.08 8.8 8.2 8.8 10.44ZM29.6712 29V1.04H44.9913V7.6H38.4713C37.2713 7.6 36.7113 8.28 36.7113 9.6C36.7113 10.96 37.3112 11.64 38.4313 11.64H44.5913V18.2H38.4713C37.2313 18.2 36.6313 18.92 36.6313 20.28C36.6313 21.72 37.2313 22.44 38.4313 22.44H44.9913V29H29.6712Z" fill="#48A8D4"/>
<path d="M48.0238 29L58.2238 1.04H65.9838L75.9838 29H68.2238L67.3038 26.44C67.0238 25.72 66.7438 25.12 66.2238 24.64C65.1838 23.68 63.7438 23.32 62.2238 23.28H61.9038C60.3838 23.32 58.9038 23.64 57.8638 24.52C57.3438 25 57.0238 25.6 56.7438 26.32L55.7438 29H48.0238ZM59.5838 18.16H64.5038L62.0638 10.56L59.5838 18.16ZM86.9197 29.8C82.8797 29.8 78.9597 27.6 78.9597 27.6V20.84C81.2797 20.84 84.0797 23.28 86.5597 23.28C88.3597 23.28 89.4797 22.4 89.4797 20.92C89.4797 19.76 88.2797 18.76 85.8397 17.92C82.8397 16.84 78.5997 14.96 78.5997 9.48C78.5997 4.2 82.5997 0.52 88.2797 0.52C92.4397 0.52 96.2397 2.52 96.2397 2.52V9.28C93.9997 9.28 91.1597 6.92 88.7197 6.92C87.2797 6.92 86.2797 7.72 86.2797 8.92C86.2797 10.56 88.5197 11.16 90.8397 12.04C95.1197 13.6 97.1997 16.32 97.1597 20.28C97.1597 23.8 94.7997 29.8 86.9197 29.8ZM118.384 20.6C115.944 21 112.664 21.32 109.104 20.6V28.96H101.624V0.999998H109.104V11.08L116.984 0.999998H124.984L114.624 14.52C120.264 14.28 124.904 11.8 124.904 11.8V29H118.384V20.6Z" fill="#0E212A"/>
<path d="M0.924 49V39.214H3.542V49H0.924ZM5.3947 49V39.214H7.9707V46.69H10.7567V49H5.3947ZM18.5684 49.28C17.1544 49.28 15.7824 48.51 15.7824 48.51V46.144C16.5944 46.144 17.5744 46.998 18.4424 46.998C19.0724 46.998 19.4644 46.69 19.4644 46.172C19.4644 45.766 19.0444 45.416 18.1904 45.122C17.1404 44.744 15.6564 44.086 15.6564 42.168C15.6564 40.32 17.0564 39.032 19.0444 39.032C20.5004 39.032 21.8304 39.732 21.8304 39.732V42.098C21.0464 42.098 20.0524 41.272 19.1984 41.272C18.6944 41.272 18.3444 41.552 18.3444 41.972C18.3444 42.546 19.1284 42.756 19.9404 43.064C21.4384 43.61 22.1664 44.562 22.1524 45.948C22.1524 47.18 21.3264 49.28 18.5684 49.28ZM22.8376 49L26.4076 39.214H29.1236L32.6236 49H29.9076L29.5856 48.104C29.4876 47.852 29.3896 47.642 29.2076 47.474C28.8436 47.138 28.3396 47.012 27.8076 46.998H27.6956C27.1636 47.012 26.6456 47.124 26.2816 47.432C26.0996 47.6 25.9876 47.81 25.8896 48.062L25.5396 49H22.8376ZM26.8836 45.206H28.6056L27.7516 42.546L26.8836 45.206ZM33.7912 49V39.214H36.8152C38.4812 39.214 40.9172 39.466 40.9172 42.434C40.9172 45.444 38.4672 45.822 37.4452 45.822H36.3392V49H33.7912ZM35.9472 42.504C35.9472 43.302 36.3532 43.708 37.1792 43.708H37.2632C38.1172 43.708 38.5092 43.316 38.5092 42.532C38.5092 41.734 38.0752 41.328 37.2772 41.328H37.1932C36.3392 41.328 35.9472 41.72 35.9472 42.504ZM42.3088 49V39.214H44.9268V49H42.3088ZM46.7795 49V39.214H52.1415V41.51H49.8595C49.4395 41.51 49.2435 41.748 49.2435 42.21C49.2435 42.686 49.4535 42.924 49.8455 42.924H52.0015V45.22H49.8595C49.4255 45.22 49.2155 45.472 49.2155 45.948C49.2155 46.452 49.4255 46.704 49.8455 46.704H52.1415V49H46.7795ZM59.6008 49C59.6008 49 57.6548 46.452 56.5068 44.114V49H53.8888V39.214L56.9548 39.2C57.7948 42.084 59.7128 45.122 59.7128 45.122V39.214H62.3308V49H59.6008ZM65.4718 49V41.51H63.5678V39.214H70.0078V41.51H68.0898V49H65.4718ZM71.2521 49V39.214H73.8701V49H71.2521ZM81.4348 49C81.4348 49 79.4888 46.452 78.3408 44.114V49H75.7228V39.214L78.7888 39.2C79.6288 42.084 81.5468 45.122 81.5468 45.122V39.214H84.1648V49H81.4348ZM90.7638 49.294C84.0297 49.294 83.8337 38.878 90.7498 38.878C97.6658 38.878 97.4978 49.294 90.7638 49.294ZM88.1458 44.058C88.1458 45.738 88.9438 46.606 90.7358 46.606H90.7918C92.5418 46.606 93.3818 45.738 93.3818 44.058C93.3818 42.406 92.5558 41.566 90.7638 41.566C89.0138 41.566 88.1458 42.406 88.1458 44.058Z" fill="black"/>
</svg>
